<?xml version="1.0" encoding="UTF-8"?>
<svg id="Glyph" xmlns="http://www.w3.org/2000/svg" version="1.1" viewBox="0 0 512 512">
  <!-- Generator: Adobe Illustrator 29.5.1, SVG Export Plug-In . SVG Version: 2.1.0 Build 141)  -->
  <defs>
    <style>
      .st0 {
        font-size: 51.92px;
      }

      .st0, .st1, .st2 {
        fill: #fff;
      }

      .st0, .st2 {
        font-family: HacenMaghrebLt, 'Hacen Maghreb Lt';
      }

      .st2 {
        font-size: 24.59px;
      }
    </style>
  </defs>
  <path class="st1" d="M249.88,260.68c-3.9,0-6.96-1.17-9.18-3.52-2.01-2.15-3.02-5.05-3.02-8.72,0-.9.08-1.77.23-2.64.15-.84.39-1.65.71-2.41l3.47.99c-.24.57-.42,1.2-.56,1.88-.12.66-.18,1.39-.18,2.18,0,2.97.74,5.24,2.21,6.79,1.33,1.4,3.19,2.1,5.55,2.1h16.53c1.5,0,2.72-.47,3.65-1.42,1.05-1.08,1.57-2.6,1.57-4.56v-10.34h4.46v10.88c.08,1.69.6,3.03,1.55,4.01.95.96,2.14,1.45,3.57,1.45h1.7v3.35h-1.7c-2.96,0-5.35-.95-7.17-2.84l-.18-.18-.2.2c-1.83,1.88-4.24,2.81-7.25,2.81h-15.77ZM255.18,267.85c0-.39.08-.75.23-1.09.15-.34.35-.63.61-.89.25-.25.55-.45.87-.6.33-.14.68-.22,1.05-.22s.73.07,1.06.22c.34.14.63.34.89.6.25.25.45.55.6.89.14.34.22.7.22,1.09s-.07.75-.22,1.08c-.14.33-.34.62-.6.86-.25.24-.55.44-.89.58-.34.14-.69.22-1.06.22s-.72-.07-1.05-.22c-.33-.14-.62-.34-.87-.58-.25-.25-.46-.53-.61-.86-.15-.33-.23-.69-.23-1.08ZM291.83,257.33v3.35h-11.46v-3.35h11.46ZM301.51,257.33v3.35h-11.46v-3.35h11.46ZM311.19,257.33v3.35h-11.46v-3.35h11.46ZM320.9,257.33v3.35h-11.46v-3.35h11.46ZM330.58,257.33v3.35h-11.46v-3.35h11.46ZM340.26,257.33v3.35h-11.46v-3.35h11.46ZM349.95,257.33v3.35h-11.46v-3.35h11.46ZM359.63,257.33v3.35h-11.46v-3.35h11.46ZM369.34,257.33v3.35h-11.46v-3.35h11.46ZM379.02,257.33v3.35h-11.46v-3.35h11.46ZM388.7,257.33v3.35h-11.46v-3.35h11.46ZM386.93,260.68v-3.35h1.6c1.5,0,2.72-.47,3.65-1.42,1.05-1.08,1.57-2.6,1.57-4.56v-10.34h4.46v10.88c.08,1.69.6,3.03,1.55,4.01.95.96,2.14,1.45,3.57,1.45h1.7v3.35h-1.7c-2.96,0-5.35-.95-7.17-2.84l-.18-.18-.2.2c-1.83,1.88-4.24,2.81-7.25,2.81h-1.6ZM389.46,267.7c0-.39.08-.75.23-1.09.15-.34.35-.63.61-.89.25-.25.55-.45.87-.6.33-.14.68-.22,1.05-.22s.73.07,1.06.22c.34.14.63.34.89.6.25.25.45.55.6.89.14.34.22.7.22,1.09s-.07.75-.22,1.08c-.14.33-.34.62-.6.86-.25.24-.55.44-.89.58-.34.14-.69.22-1.06.22s-.72-.07-1.05-.22c-.33-.14-.62-.34-.87-.58-.25-.25-.46-.53-.61-.86-.15-.33-.23-.69-.23-1.08ZM396.08,267.7c0-.39.08-.75.23-1.09.15-.34.35-.63.61-.89.25-.25.55-.45.89-.6.34-.14.7-.22,1.09-.22s.72.07,1.05.22c.33.14.62.34.86.6.24.25.44.55.58.89.14.34.22.7.22,1.09s-.07.75-.22,1.08c-.14.33-.34.62-.58.86-.25.24-.53.44-.86.58-.33.14-.68.22-1.05.22s-.75-.07-1.09-.22c-.34-.14-.63-.34-.89-.58-.25-.25-.46-.53-.61-.86-.15-.33-.23-.69-.23-1.08ZM403.23,260.68v-3.35h8.01c-2.28-2.06-3.86-4.67-4.74-7.83-.42-1.55-.63-2.97-.63-4.23,0-2.1.55-3.85,1.65-5.27,1.13-1.45,2.74-2.47,4.82-3.04,1.22-.34,2.54-.51,3.98-.51h3.65c1.45,0,2.79.17,4.01.51,2.08.57,3.68,1.59,4.79,3.04,1.1,1.42,1.65,3.18,1.65,5.27,0,1.27-.21,2.68-.63,4.23-.86,3.16-2.44,5.77-4.74,7.83h7.91v3.35h-29.71ZM415.29,255.76c.88.69,1.83,1.25,2.84,1.67,1.03-.42,1.99-.98,2.86-1.67,2.16-1.71,3.64-4.01,4.44-6.92.35-1.3.53-2.49.53-3.57,0-1.5-.35-2.7-1.04-3.6-.57-.76-1.4-1.28-2.48-1.57-.73-.2-1.56-.3-2.48-.3h-3.65c-.93,0-1.75.1-2.46.3-1.08.29-1.91.81-2.48,1.57-.69.9-1.04,2.1-1.04,3.6,0,1.08.18,2.27.53,3.57.79,2.91,2.27,5.21,4.44,6.92h0ZM415.32,231.35c0-.39.08-.75.23-1.09.15-.34.35-.63.61-.89.25-.25.55-.45.87-.6.33-.14.68-.22,1.05-.22s.73.07,1.06.22c.34.14.63.34.89.6.25.25.45.55.6.89.14.34.22.7.22,1.09s-.07.75-.22,1.08c-.14.33-.34.62-.6.86-.25.25-.55.44-.89.58-.34.14-.69.22-1.06.22s-.72-.07-1.05-.22c-.33-.14-.62-.34-.87-.58-.25-.24-.46-.53-.61-.86s-.23-.69-.23-1.08ZM448.55,260.68c-3.74,0-6.75-1.2-9.05-3.6-.08-.08-.17-.17-.25-.25-.25.35-.54.7-.86,1.04-1.83,1.88-4.23,2.81-7.22,2.81v-3.35c1.5,0,2.72-.47,3.65-1.42,1.05-1.08,1.57-2.6,1.57-4.56v-2.64c0-3.68,1.01-6.59,3.02-8.72,2.23-2.37,5.29-3.55,9.18-3.55s6.99,1.17,9.2,3.52c2.01,2.13,3.02,5.04,3.02,8.75,0,3.46-1.05,6.27-3.14,8.42-.07.07-.14.14-.2.2h6.08v3.35h-14.98ZM456.36,248.71c0-3.01-.74-5.28-2.21-6.82-1.32-1.4-3.18-2.1-5.58-2.1s-4.21.7-5.53,2.1c-1.49,1.57-2.23,3.85-2.23,6.82,0,2.72.76,4.86,2.28,6.41,1.42,1.47,3.24,2.21,5.45,2.21s4.12-.72,5.53-2.15c1.52-1.55,2.28-3.71,2.28-6.46h0ZM474.16,231.37v21.37c0,2.1-.76,3.9-2.28,5.43-1.67,1.67-3.74,2.51-6.19,2.51h-3.95v-3.35h3.95c.98,0,1.86-.39,2.64-1.17.93-.91,1.39-2.05,1.39-3.42v-21.37h4.44ZM483.67,231.37v27.63h-4.44v-27.63h4.44Z"/>
  <text class="st0" transform="translate(234.22 319.52)"><tspan x="0" y="0">ALMUGHEB</tspan></text>
  <text class="st2" transform="translate(234.6 343.31)"><tspan x="0" y="0">للتطوير و الإستثمار العقاري</tspan></text>
  <g>
    <path class="st1" d="M115.03,285.19v-8.85l-7.96,6.04v52.64h7.96v-40.55l9.44-7.22v47.77h7.96v-79.03l27.42,20.2v58.83h7.67v-54.55l10.02,8.11v57.35H28.33v-21.97l9.73-6.93v17.99h23.88v-35.68l9.73-6.78v42.46h7.96v-48.21l9.73-6.93v55.14l1.15-.03.17-.86.31.91,6.33-.02v-61.34l27.13-19.46v24.03l-9.44,6.93ZM149.82,281.95l-7.96-5.6v58.68h7.96v-53.08Z"/>
    <path class="st1" d="M94.97,151.32l68.72,49.97.29.88.13,40.27,50.05,36.56.52.74v66.05l-.44.44h-10.47v-61.19l-83.45-61.63v-12.53l32.73,23.59v-27.57l-47.18-34.35v73.87l-67.52,48.95c-.31.22-.28.54-.32.86-.43,3.52.48,7.78-.13,11.37l-9.59,6.78v-24.92l66.64-48.21v-89.94Z"/>
    <polygon class="st1" points="186.09 346.23 186.09 299.05 196.12 307.16 196.12 345.79 195.68 346.23 186.09 346.23"/>
    <path class="st1" d="M78.06,349.23c1.01-.2,3.99,3.73,5.01,4.36l4.83-4.27.59-.02c1.24,1.04,5.96,4.97,5.56,6.46-1.17,1.03-4.18,4.91-5.48,5.18-2.12.44-3.97-2.92-5.53-4.07-1.74,1.23-3.38,4.77-5.77,3.99-.96-.31-4.97-4.57-4.98-5.62,0-1.44,4.7-4.85,5.77-6"/>
    <path class="st1" d="M50.66,349.51c.99-.26,6.21,4.86,6.3,5.73.1,1.11-4.74,6.04-6.06,6.04-1.04,0-4.72-3.52-5.32-4.42-.57-.86-.68-1.62-.15-2.54.21-.37,4.89-4.72,5.24-4.81"/>
    <polygon class="st1" points="107.65 252.46 111.76 258.77 104.26 264.2 99.74 258.21 107.65 252.46"/>
  </g>
</svg>